<svg xmlns="http://www.w3.org/2000/svg" width="32" height="32" viewBox="0 0 32 32">
  <g id="folder-2" transform="translate(-428 -188)">
    <path id="Vector" d="M7.42,2.65a3.409,3.409,0,0,0-.66-.22,5.368,5.368,0,0,0-1.52-.21H1.69L.39.49A5.98,5.98,0,0,0,0,0H3.38A4.394,4.394,0,0,1,7.42,2.65Z" transform="translate(446.294 190)" fill="#dc2f02"/>
    <path id="Vector-2" data-name="Vector" d="M25.4,6.356a5.852,5.852,0,0,0-2.03-.938,5.779,5.779,0,0,0-1.554-.21H16.6c-.812,0-.868-.07-1.3-.644l-1.96-2.6A4.013,4.013,0,0,0,9.436,0H6.188A6.19,6.19,0,0,0,0,6.188V21.812A6.19,6.19,0,0,0,6.188,28H21.812A6.19,6.19,0,0,0,28,21.812V11.4A6.147,6.147,0,0,0,25.4,6.356Zm-8.05,13.72H10.64a.98.98,0,0,1,0-1.96h6.706a.98.98,0,0,1,0,1.96Z" transform="translate(430 190)" fill="#dc2f02"/>
    <path id="Vector-3" data-name="Vector" d="M0,0H32V32H0Z" transform="translate(460 220) rotate(180)" fill="none" opacity="0"/>
    <circle id="Эллипс_9" data-name="Эллипс 9" cx="3" cy="3" r="3" transform="translate(441 201)" fill="#fff"/>
  </g>
</svg>
